<mxfile host="app.diagrams.net" modified="2023-09-21T02:54:30.966Z" agent="Mozilla/5.0 (Windows NT 10.0; Win64; x64) AppleWebKit/537.36 (KHTML, like Gecko) Chrome/116.0.0.0 Safari/537.36" version="21.8.0" etag="MOQkRUJ7n73zuGa5h2fV" type="github">
  <diagram name="Page-1" id="viKyYU14LUEGn3qHm7gZ">
    <mxGraphModel>
      <root>
        <mxCell id="0" />
        <mxCell id="1" parent="0" />
      </root>
    </mxGraphModel>
  </diagram>
</mxfile>
